name Walk6.mot
datacolumns 19
datarows 12
range 2.14000000 2.19500000
endheader

                time	   L_ground_force_vx	   L_ground_force_vy	   L_ground_force_vz	   L_ground_force_px	   L_ground_force_py	   L_ground_force_pz	   R_ground_force_vx	   R_ground_force_vy	   R_ground_force_vz	   R_ground_force_px	   R_ground_force_py	   R_ground_force_pz	   L_ground_torque_x	   L_ground_torque_y	   L_ground_torque_z	   R_ground_torque_x	   R_ground_torque_y	   R_ground_torque_z	
          2.14000000	          0.00000011	          0.00000051	         -0.00000003	         -0.00000000	          0.00000000	         -0.00000000	         20.58116830	         89.92332706	          2.98682146	          0.18683969	          0.00000000	          0.02426162	          0.00000000	          0.00000000	          0.00000000	          0.00000000	         -4.48807520	          0.00000000	
          2.14500000	          0.00000005	          0.00000035	         -0.00000002	         -0.00000000	          0.00000000	         -0.00000000	         14.36570169	         61.88619324	          2.59227730	          0.16420305	          0.00000000	          0.02089782	          0.00000000	          0.00000000	          0.00000000	          0.00000000	         -3.23240954	          0.00000000	
          2.15000000	          0.00000002	          0.00000023	         -0.00000002	         -0.00000000	          0.00000000	         -0.00000000	          9.24420183	         39.11523003	          2.12154656	          0.13828088	          0.00000000	          0.01724675	          0.00000000	          0.00000000	          0.00000000	          0.00000000	         -2.17216073	          0.00000000	
          2.15500000	         -0.00000001	          0.00000013	         -0.00000001	         -0.00000000	          0.00000000	         -0.00000000	          5.22830850	         21.42919786	          1.65019544	          0.11095197	          0.00000000	          0.01356232	          0.00000000	          0.00000000	          0.00000000	          0.00000000	         -1.32040445	          0.00000000	
          2.16000000	         -0.00000003	          0.00000006	         -0.00000001	         -0.00000000	          0.00000000	         -0.00000000	          2.23949399	          8.39274589	          1.21740706	          0.08465317	          0.00000000	          0.01012709	          0.00000000	          0.00000000	          0.00000000	          0.00000000	         -0.66976109	          0.00000000	
          2.16500000	         -0.00000003	          0.00000000	         -0.00000000	         -0.00000000	          0.00000000	         -0.00000000	          0.14570825	         -0.63104294	          0.84358607	          0.06109322	          0.00000000	          0.00712321	          0.00000000	          0.00000000	          0.00000000	          0.00000000	         -0.19954610	          0.00000000	
          2.17000000	         -0.00000004	         -0.00000003	         -0.00000000	         -0.00000000	          0.00000000	         -0.00000000	         -1.20851975	         -6.36791604	          0.53714445	          0.04115294	          0.00000000	          0.00463352	          0.00000000	          0.00000000	          0.00000000	          0.00000000	          0.11777535	          0.00000000	
          2.17500000	         -0.00000004	         -0.00000005	          0.00000000	         -0.00000000	          0.00000000	         -0.00000000	         -1.98138063	         -9.54323646	          0.29814775	          0.02511093	          0.00000000	          0.00267048	          0.00000000	          0.00000000	          0.00000000	          0.00000000	          0.31195284	          0.00000000	
          2.18000000	         -0.00000003	         -0.00000006	          0.00000000	         -0.00000000	          0.00000000	         -0.00000000	         -2.32029809	        -10.82475332	          0.12130391	          0.01283753	          0.00000000	          0.00120041	          0.00000000	          0.00000000	          0.00000000	          0.00000000	          0.41180340	          0.00000000	
          2.18500000	         -0.00000003	         -0.00000006	          0.00000000	         -0.00000000	          0.00000000	         -0.00000000	         -2.35413177	        -10.79045816	         -0.00169629	          0.00395154	          0.00000000	          0.00016275	          0.00000000	          0.00000000	          0.00000000	          0.00000000	          0.44326697	          0.00000000	
          2.19000000	         -0.00000002	         -0.00000005	          0.00000000	          0.00000000	          0.00000000	         -0.00000000	         -2.18964529	         -9.91507056	         -0.08043978	         -0.00205939	          0.00000000	         -0.00051555	          0.00000000	          0.00000000	          0.00000000	          0.00000000	          0.42838688	          0.00000000	
          2.19500000	         -0.00000002	         -0.00000005	          0.00000000	          0.00000000	          0.00000000	          0.00000000	         -1.91098883	         -8.56953926	         -0.12457464	         -0.00575121	          0.00000000	         -0.00090976	          0.00000000	          0.00000000	          0.00000000	          0.00000000	          0.38496435	          0.00000000	
